<?xml version="1.0" encoding="UTF-8"?><svg xmlns="http://www.w3.org/2000/svg" viewBox="0 0 200 200"><path fill="#d4e4ff" d="M70.02 53.4c2.27 1.7 5.02 2.74 7.85 2.97.44.04.94.04 1.27-.26.28-.24.38-.63.46-.99a78 78 0 0 0 1.82-16.9c0-1.02.17-2.32 1.15-2.6.46-.13.94.02 1.39.18 7 2.41 13.85 5.3 20.46 8.64 1.75.88 3.49 1.8 5.39 2.28 1.44.37 2.93.48 4.39.76 2.74.53 5.32 1.66 7.87 2.79.64.28 1.31.58 1.77 1.11.82.95.77 2.36.63 3.61-.67 6.23-2.08 12.61-.5 18.68.08.29.17.6.41.79.28.23.68.22 1.04.21 1.18-.05 2.37-.11 3.55-.16.64-.03 1.34-.08 1.8-.53.52-.5.55-1.31.54-2.03l-.12-18.15c0-1.42-.03-2.87-.58-4.18-.79-1.87-2.56-3.14-4.35-4.1-5.38-2.88-11.55-3.81-17.34-5.71-9.72-3.2-18.41-9.16-28.31-11.76-1.15-.3-2.43-.55-3.5-.02-.82.4-1.37 1.2-1.79 2.01-1.37 2.66-1.65 5.74-1.9 8.72-.39 4.59-.77 9.19-1.16 13.78"/><path fill="#d4e4ff" d="M69.34 54.08c1.39 1.09 2.93 2.02 4.6 2.62.8.29 1.62.52 2.46.67.19.04.38.07.58.09l.48.06h.11c-.22-.01-.15 0 .21.04.46.05.94.04 1.38-.1 1.17-.38 1.5-1.42 1.73-2.5.2-.91.38-1.83.54-2.74.35-1.94.62-3.9.83-5.87s.33-3.8.4-5.7c.03-.92.01-1.83.05-2.75 0-.14.02-.27.03-.4.02-.29-.06.3 0 .02.02-.08.03-.16.05-.24l.06-.23.02-.07c.05-.13.03-.1-.04.09.02-.02.05-.11.07-.13.02-.04.05-.08.07-.12.08-.11.05-.08-.07.09l.05-.05c.1-.09.06-.07-.1.06.03 0 .17-.09.18-.11l-.17.07c.06-.02.12-.04.18-.05-.07 0-.22-.01-.02.03-.32-.06.04.01.09.02.11.03.21.06.32.1.26.09.51.18.77.27.86.31 1.71.62 2.57.93a156 156 0 0 1 6.42 2.51l.66.27.12.05c.13.05.26.11.38.16.86.37 1.71.74 2.56 1.12 1.7.76 3.39 1.55 5.06 2.37s3.25 1.68 4.92 2.39c.88.38 1.77.72 2.71.95s1.9.35 2.85.49c1.83.27 3.59.72 5.33 1.36.4.15.8.3 1.19.46.22.09.43.18.65.27.35.14-.14-.06.07.03.12.05.25.11.38.16.79.34 1.64.65 2.38 1.09.09.05.17.11.25.16.09.06.15.04-.03-.02.08.03.16.15.22.21.23.21-.12-.22.04.03.05.08.1.15.14.24l.04.08c.06.13.05.11-.02-.06 0 .02.05.14.06.17q.06.18.09.36l.02.09q.03.21 0-.06c.03.07.02.21.02.28.01.18.01.35 0 .53 0 .41-.05.82-.09 1.22-.21 1.87-.47 3.73-.71 5.59-.47 3.78-.77 7.57-.16 11.35.14.9.28 1.9.69 2.72.26.53.72.91 1.28 1.09.47.16.98.13 1.47.11l2.88-.12c.96-.04 1.91-.06 2.7-.6.94-.64 1.28-1.66 1.34-2.75.05-.88 0-1.78 0-2.66 0-1.95-.02-3.89-.03-5.84s-.03-3.89-.04-5.84.03-3.8-.06-5.7c-.05-.96-.15-1.96-.48-2.87s-.77-1.64-1.36-2.37c-1.02-1.24-2.42-2.15-3.82-2.89-3.16-1.67-6.59-2.72-10.03-3.66s-6.76-1.77-10.03-3.01c-.79-.3-1.58-.62-2.36-.94.29.12-.05-.02-.09-.04-.1-.04-.2-.09-.3-.13-.2-.09-.41-.18-.61-.26-.4-.18-.81-.36-1.21-.54-1.58-.72-3.14-1.46-4.7-2.22-3.19-1.54-6.38-3.08-9.66-4.42a64 64 0 0 0-4.86-1.77c-1.73-.54-3.61-1.2-5.44-.86s-3.05 2.03-3.77 3.68-1.13 3.48-1.38 5.32-.38 3.72-.54 5.58-.33 3.85-.48 5.77-.31 3.81-.47 5.71c-.06.71.67 1.39 1.36 1.36.79-.04 1.3-.6 1.36-1.36.32-3.81.66-7.61.97-11.42.15-1.79.27-3.58.49-5.35.05-.37-.05.29.01-.08.02-.11.03-.22.05-.33l.09-.55c.08-.44.17-.87.27-1.3.1-.39.2-.78.33-1.17.07-.21.14-.42.22-.62.03-.09.07-.17.1-.26l.06-.15c-.07.16-.07.16 0 .02.16-.35.33-.7.52-1.03.09-.15.19-.39.33-.5-.22.17-.07.09 0 0s.15-.17.23-.25c.05-.05.15-.18.22-.2l-.12.09c.05-.04.11-.07.16-.11l.21-.12.04-.02c.14-.06.13-.06-.04.01.05-.05.23-.07.3-.09s.4-.11.05-.02c.19-.05.43-.03.62-.02.11 0 .21.02.32.02.36.02-.29-.05.06 0 .18.03.35.06.53.1.42.09.84.21 1.26.32a57.5 57.5 0 0 1 7.24 2.58c.1.04.2.09.3.13.17.07.34.15.51.22.4.18.81.36 1.21.54.77.35 1.54.7 2.31 1.07 3.07 1.44 6.11 2.96 9.22 4.33s6.43 2.63 9.78 3.58 6.64 1.71 9.87 2.86c.38.14.77.28 1.14.43.17.07.34.14.52.21.1.04.21.08.31.13-.3-.13.14.06.19.08.77.34 1.53.7 2.27 1.11q.465.255.93.54c.14.09.27.18.41.27.08.06.16.11.24.17.05.04.11.08.16.12.12.09.1.08-.04-.03-.01.04.73.63.8.7.11.11.22.23.33.35.06.07.12.15.19.22.09.11.08.1-.03-.05.04.05.08.1.11.15.2.29.37.59.53.91.1.21 0 0-.01-.04.05.09.08.21.11.31.08.25.15.5.2.75.02.07.03.15.04.22 0 .05.07.42.02.08.03.22.05.45.06.67.03.45.04.9.04 1.35.02 1.87.02 3.75.03 5.62.02 3.79.05 7.58.08 11.37 0 .46 0 .91.01 1.37v.58c0 .09-.01.18-.02.28-.02.29.07-.25 0 0-.02.09-.05.17-.07.26-.06.28.16-.23 0 0l-.04.08c-.08.12-.06.1.05-.06-.04 0-.08.12-.13.13l.12-.1c-.05.03-.11.06-.16.09l.14-.06-.18.06c-.05.02-.23.08-.28.06.18-.02.21-.03.11-.01-.05 0-.1.01-.15.01-.9.08-1.81.09-2.72.14-.44.02-.88.05-1.32.06h-.28c-.28 0 .25.1 0 0l.15.07c-.12-.07-.1-.06.05.05.35.35-.19-.19.1.2-.1-.14-.13-.42-.17-.58a10 10 0 0 1-.13-.58c-.1-.46-.19-.93-.26-1.39 0-.04-.06-.43-.02-.12-.01-.12-.03-.23-.04-.35l-.06-.59q-.06-.705-.09-1.41c-.07-1.82.03-3.64.21-5.45s.42-3.66.65-5.48c.22-1.7.57-3.47.29-5.18-.14-.85-.54-1.7-1.19-2.29s-1.44-.94-2.24-1.29c-1.7-.75-3.41-1.49-5.18-2.06-.85-.27-1.71-.51-2.58-.68s-1.83-.29-2.74-.43-1.78-.34-2.64-.63c-.4-.13-.79-.29-1.18-.45.27.12-.08-.04-.11-.05-.09-.04-.18-.08-.26-.12-.23-.1-.45-.21-.68-.32-1.62-.78-3.22-1.62-4.84-2.39s-3.3-1.55-4.97-2.28c-3.41-1.5-6.86-2.89-10.35-4.15-.85-.31-1.71-.61-2.58-.89-1.04-.33-2.14-.32-2.98.44-1.23 1.11-1.06 3-1.07 4.49-.02 1.87-.11 3.73-.26 5.59-.08.91-.17 1.82-.27 2.72-.03.22-.05.44-.08.66-.02.12-.03.24-.05.36-.05.4.04-.24-.02.15-.07.46-.13.92-.2 1.38q-.21 1.38-.48 2.76c-.08.44-.17.88-.27 1.31-.04.2-.08.4-.13.6-.01.05-.03.24-.08.27.07-.15.07-.16.01-.04l-.05.08.08-.1c-.1.09-.09.09.03-.02.29-.14 0 .03-.06 0l.13-.02c-.06 0-.13 0-.19.01h-.24c-.19-.01-.38-.02-.57-.04-.11 0-.21-.02-.32-.03-.08 0-.32-.04-.11-.01-.81-.11-1.61-.29-2.39-.53a20 20 0 0 1-1.69-.6c.18.08-.14-.06-.14-.06-.06-.03-.13-.06-.19-.09-.74-.34-1.44-.77-2.1-1.24-.39-.27-.97-.11-1.24.25s-.31.96.08 1.26Z"/><path fill="#d4e4ff" d="M45.21 109.19c-.89.84-.83 2.33-.21 3.39.62 1.05 1.67 1.77 2.68 2.45 20.54 13.77 41.09 27.54 61.63 41.31 3.02 2.02 6.25 4.33 7.26 7.82 1.38 4.79-1.96 9.96-.72 14.79 3.24.2 6.45-.58 9.6-1.36 8.72-2.16 17.47-4.33 25.91-7.41 5.75-2.1 12-5.31 13.65-11.21.85-3.05.29-6.29-.25-9.41a530 530 0 0 1-6.85-59.18c-.27-4.56-.64-9.52-3.73-12.88-4.55-4.95-12.91-4.22-18-8.63-.08 3.29-3.07 5.87-6.22 6.81s-6.52.65-9.81.8c9.01 4.23 18.02 8.47 27.03 12.7-6.56 8.31-7.29 19.64-8.11 30.19s-2.44 22.01-10.07 29.35c-.6.58-1.28 1.15-2.1 1.31-1.66.33-3.1-1.05-4.39-2.15-4.56-3.86-10.71-5.09-16.33-7.13-4.97-1.8-9.68-4.33-13.94-7.47-1 3.07-4.7 4.57-7.91 4.15s-6.01-2.28-8.69-4.08c-2.04-1.37-4.07-2.75-6.11-4.12-1.13-.76-2.36-1.69-2.52-3.04-.19-1.59 1.21-2.96 1.39-4.56.26-2.37-2.11-4.09-4.19-5.27-6.06-3.44-12.45-6.97-19.42-7.13"/><path fill="#d4e4ff" d="M44.51 108.49c-1.22 1.18-1.21 3.1-.45 4.53.82 1.53 2.39 2.5 3.76 3.48.19.13.37.27.56.4.03.02.24.17.11.08.15.11.29.22.45.33.41.28.83.56 1.24.84l2.37 1.62c1.58 1.08 3.17 2.16 4.75 3.24 6.3 4.3 12.59 8.61 18.9 12.87s12.64 8.51 18.98 12.73l9.56 6.38c1.51 1 3.01 2.01 4.51 3.03q.9.615 1.77 1.26c.27.2-.25-.2.02.01.08.06.15.12.23.18.13.1.25.2.37.3.29.25.58.5.86.76.25.24.5.48.74.74.13.14.25.28.37.42l.15.18c.03.04.06.07.09.11.1.12.08.1-.05-.07.1.03.26.36.33.45a9 9 0 0 1 .77 1.37l.04.08c.06.14.05.11-.04-.09 0 0 .09.24.1.26l.15.45c.06.19.11.38.15.58.03.12.16.49.11.59l-.02-.19c0 .07.02.13.02.2 0 .08.02.16.02.25l.03.54c.01.4 0 .8-.03 1.19-.01.17-.03.33-.04.5l-.03.3c-.01.09-.02.43 0 .02-.02.4-.12.82-.2 1.21-.14.78-.31 1.55-.46 2.32-.32 1.6-.62 3.23-.59 4.86.02.84.12 1.69.33 2.51.16.65.77 1.03 1.4 1.07 2.99.17 5.97-.44 8.86-1.14s5.56-1.38 8.34-2.09c5.56-1.43 11.1-2.96 16.53-4.84 4.38-1.51 8.82-3.22 12.37-6.28 1.61-1.38 2.99-3.09 3.83-5.05 1.13-2.62 1.25-5.44.9-8.24s-.95-5.84-1.42-8.76-.92-5.81-1.35-8.72c-.21-1.45-.42-2.89-.61-4.34-.05-.35-.09-.69-.14-1.04-.02-.16-.04-.33-.07-.49.04.29 0 .07 0 .01-.02-.12-.03-.24-.05-.37-.1-.73-.19-1.47-.29-2.2q-.555-4.35-1.05-8.7a540 540 0 0 1-2.29-26.25c-.16-2.54-.27-5.09-.71-7.61-.4-2.31-1.14-4.64-2.52-6.56s-3.09-3.23-5.12-4.21-4.01-1.55-6.07-2.16c-1.01-.3-2.02-.61-3.02-.96l-.66-.24c-.12-.05-.24-.09-.36-.14-.07-.03-.13-.05-.2-.08-.05-.02-.29-.13-.07-.03s-.17-.07-.23-.1c-.1-.05-.21-.09-.31-.14a17 17 0 0 1-1.98-1.09c-.2-.13-.4-.27-.59-.42s.06.05.08.07c-.04-.04-.09-.07-.13-.11-.11-.09-.22-.18-.33-.28-.44-.38-.99-.53-1.55-.29-.53.22-.85.72-.87 1.29 0 .13-.01.27-.02.4-.02.18-.1.16.01-.07-.02.04-.02.14-.03.17-.05.27-.12.54-.21.8-.04.1-.22.49-.03.11-.05.1-.09.21-.15.31-.13.26-.28.51-.44.75-.04.06-.21.23-.2.29-.01-.09.19-.24.03-.04-.04.05-.08.09-.11.14-.18.22-.38.42-.58.62s-.4.36-.61.54c-.07.06-.2.11.07-.05-.05.03-.1.07-.15.11-.14.1-.27.19-.42.28-.22.14-.44.27-.67.4-.07.04-.83.39-.82.4 0 0 .33-.13.09-.04-.06.02-.11.05-.17.07-.13.05-.25.1-.38.14-.31.11-.63.2-.95.28-.34.08-.68.16-1.03.22-.15.03-.31.05-.46.08l-.23.03c.34-.04-.01 0-.09 0-.72.08-1.44.13-2.16.16-1.63.06-3.26.03-4.89.1-.6.03-1.22.42-1.36 1.04-.13.57.07 1.33.65 1.6 7.01 3.3 14.02 6.59 21.04 9.89 2 .94 4 1.87 5.99 2.82l-.29-2.23c-1.1 1.38-2.09 2.84-2.92 4.4-.4.74-.76 1.5-1.1 2.27-.12.27-.23.53-.34.8-.04.09-.08.18-.11.27-.02.04-.09.19 0 0 .12-.25-.12.28-.13.31-.15.38-.3.77-.43 1.16-1.13 3.2-1.83 6.54-2.32 9.9s-.81 7.03-1.08 10.56c-.13 1.65-.25 3.29-.41 4.93-.08.83-.17 1.65-.27 2.47-.02.19-.05.39-.07.58-.01.1-.02.19-.04.29 0 .06-.06.42-.03.2s-.01.09-.02.15c-.01.1-.03.19-.04.29l-.09.63c-.48 3.22-1.16 6.43-2.22 9.52-.26.76-.55 1.52-.86 2.26-.06.15.06-.13.05-.13-.02.04-.04.09-.06.13-.04.09-.07.17-.11.26-.08.19-.17.37-.25.56-.16.36-.34.71-.51 1.06-.72 1.41-1.54 2.76-2.49 4.02-.06.08-.12.15-.17.22 0 0 .18-.23.08-.11-.03.04-.06.07-.09.11l-.42.51a22 22 0 0 1-1.61 1.74c-.14.14-.29.28-.43.41l-.23.2c-.03.02-.17.13-.01.01s-.02.02-.06.04c-.16.12-.33.22-.51.31-.04.02-.1.04-.13.06.21-.15.19-.07.07-.04-.11.03-.23.06-.34.08-.15.04.14-.02.15-.02-.03-.01-.11 0-.14 0h-.28c-.15 0 .15.02.16.02-.04-.02-.09-.02-.14-.03-.11-.02-.21-.05-.31-.08-.09-.03-.18-.07-.26-.1 0 0 .26.13.13.05-.04-.02-.09-.04-.13-.06-.19-.1-.37-.21-.55-.32a9 9 0 0 1-.4-.28c-.02-.03-.09-.07-.12-.1-.09-.07-.18-.15-.27-.23-1.39-1.16-2.77-2.25-4.36-3.13s-3.26-1.57-4.95-2.2c-3.3-1.22-6.71-2.13-9.98-3.44-.22-.09-.45-.18-.67-.27-.05-.02-.11-.04-.15-.06 0 0 .25.11.09.04l-.36-.15c-.43-.19-.85-.38-1.27-.57-.84-.39-1.68-.81-2.5-1.24-1.68-.89-3.31-1.86-4.9-2.91-.76-.51-1.51-1.03-2.24-1.57-.82-.61-1.92.07-2.2.89-.03.1-.1.21-.11.31 0 .01.14-.31.07-.17-.03.05-.05.1-.07.15-.09.18-.19.36-.3.53l-.18.27c-.14.21.22-.26.01-.02-.14.16-.29.32-.44.47-.15.14-.31.26-.46.4-.01 0 .27-.19.14-.11-.05.03-.09.06-.13.1l-.27.18c-.18.11-.36.21-.54.31-.09.04-.17.09-.26.13-.05.02-.1.05-.15.07-.16.08.37-.14.09-.04-.4.15-.8.28-1.21.38-.21.05-.42.08-.63.12-.16.03.21-.03.19-.02-.06 0-.11.01-.17.02l-.34.03c-.44.03-.87.03-1.31 0-.1 0-.2-.03-.29-.03.34 0 .22.03.1.01-.07-.01-.14-.02-.21-.04-.27-.05-.53-.1-.79-.16-.54-.13-1.07-.3-1.59-.49-.12-.04-.24-.09-.35-.14-.05-.02-.27-.1-.07-.03.18.07.01 0-.02-.01-.26-.12-.53-.24-.79-.37-1-.5-1.96-1.06-2.9-1.66-2.06-1.3-4.07-2.69-6.1-4.05-.52-.35-1.05-.7-1.57-1.05-.2-.13-.39-.27-.58-.41s.21.17-.06-.05c-.1-.08-.19-.16-.29-.25-.17-.16-.33-.33-.49-.5-.09-.1-.02-.13.05.06-.01-.04-.06-.08-.08-.11-.08-.11-.14-.23-.21-.35-.12-.21.09.28-.02-.04-.03-.1-.06-.2-.08-.31-.07-.26.03.09.01.09v-.33c.01-.31.01.04-.02.05.01 0 .15-.62.17-.67.03-.09.05-.25.12-.31-.02.02-.13.3-.03.07.03-.06.05-.12.08-.17.24-.53.5-1.06.72-1.6.4-1.01.5-2.15.18-3.2-.63-1.99-2.39-3.37-4.1-4.42-1.89-1.16-3.86-2.22-5.83-3.23-4.15-2.14-8.53-3.9-13.21-4.37-.55-.06-1.1-.09-1.66-.1-.75-.02-1.46.67-1.43 1.43s.63 1.41 1.43 1.43c.57.01 1.14.05 1.71.1.13.01.26.03.38.04.07 0 .15.02.22.03.27.03 0 0-.05 0 .29.03.58.09.87.14 1.12.2 2.23.47 3.31.8s2.17.73 3.23 1.16l.15.06c.04.02.26.11.09.04s.05.02.09.04c.05.02.1.04.15.07.27.12.55.24.82.36.53.24 1.05.49 1.57.74 2.08 1.02 4.11 2.15 6.13 3.29.41.23.82.47 1.21.73.18.12.36.24.53.37.05.04.1.07.15.11.2.15-.04-.04-.06-.04.09.03.21.17.28.23.17.15.34.3.5.46.08.08.16.17.24.26s.28.42.09.09c.1.17.23.32.33.5.06.1.1.2.15.3.02.04.08.18 0-.01-.09-.21 0 .02.02.07.04.1.07.21.09.32.01.06.07.38.03.14s0 .09 0 .15c0 .13 0 .26-.02.39 0 .18.06-.27 0-.09l-.03.14c-.03.12-.06.24-.1.36s-.08.24-.13.36c-.01.03-.08.19 0 .01.08-.2-.03.06-.05.1-.48 1.06-1.04 2.07-1.11 3.25-.16 2.56 2.25 4.04 4.09 5.29 2.09 1.41 4.17 2.84 6.26 4.26 1.92 1.31 3.93 2.52 6.17 3.21 2.01.62 4.17.7 6.19.09 1.9-.58 3.66-1.74 4.7-3.46.27-.45.48-.94.64-1.44l-2.2.89c3.06 2.25 6.35 4.19 9.81 5.76 1.78.81 3.61 1.54 5.46 2.17 1.66.57 3.34 1.08 5.01 1.63.83.27 1.66.56 2.49.86.42.15.83.31 1.24.48.09.04.19.08.28.12.05.02.35.15.16.06s.11.05.16.07c.11.05.22.1.33.14 1.57.7 3.09 1.54 4.47 2.57l.12.09-.09-.07c.07.07.16.13.24.19l.54.45c.32.27.64.55.97.81.79.62 1.63 1.22 2.63 1.47 1.09.28 2.22.12 3.2-.44.8-.46 1.49-1.14 2.13-1.81 2.29-2.37 4.1-5.17 5.43-8.18s2.3-6.3 2.96-9.6c.66-3.35 1.06-6.75 1.36-10.16s.51-6.85.89-10.26l.15-1.32c.03-.2.05-.41.08-.61.01-.1.03-.2.04-.3 0 0-.04.3-.02.13 0-.07.02-.14.03-.2.12-.86.25-1.72.4-2.57.29-1.69.65-3.37 1.11-5.03s.99-3.23 1.64-4.8c.11-.26-.1.24 0-.02l.12-.27c.09-.21.19-.42.29-.63.17-.37.36-.74.54-1.11.39-.75.8-1.48 1.26-2.19.22-.35.45-.7.69-1.04.11-.16.23-.33.35-.49l.18-.24c.05-.07.28-.36.05-.07.29-.37.45-.71.39-1.19-.05-.4-.28-.85-.68-1.04-7.03-3.26-14.03-6.59-21.04-9.88-2-.94-4-1.88-5.99-2.82l-.71 2.64c3.13-.14 6.31.08 9.39-.64 2.63-.61 5.05-2.06 6.65-4.26a7.37 7.37 0 0 0 1.4-4.12l-2.42 1c3.31 2.85 7.62 3.73 11.67 5.05.47.15.93.31 1.39.49.24.09.48.19.72.28.08.03.23.12-.1-.04.05.03.11.05.16.07.13.06.26.11.39.17.89.41 1.75.89 2.54 1.48l.13.1c-.29-.19-.16-.13-.09-.07.1.08.2.16.29.24.19.17.38.34.56.52s.35.36.52.56c.08.1.16.2.25.3.21.25-.14-.19-.02-.02.05.06.09.13.14.19.33.46.63.95.88 1.46.11.23.22.46.32.69s-.02-.06-.03-.08c.04.04.07.16.09.22.05.13.1.27.15.4.39 1.08.65 2.2.84 3.34.05.28.09.55.13.83.01.08.02.27-.01-.08 0 .07.02.13.03.2l.06.49c.06.57.12 1.15.16 1.73.21 2.72.34 5.44.53 8.17.41 5.77.91 11.52 1.51 17.27s1.31 11.66 2.11 17.47 1.66 11.44 2.63 17.14c.24 1.4.53 2.79.69 4.2 0-.05-.04-.3 0-.03 0 .08.02.16.03.23.02.16.04.31.05.47.04.35.07.7.09 1.06.04.7.05 1.4 0 2.1 0 .15-.02.31-.04.46 0 .08-.02.15-.02.23-.03.27 0 .02 0-.03-.04.36-.12.73-.2 1.09a12 12 0 0 1-.46 1.46c-.03.05-.05.11-.07.16-.05.12-.11.23-.17.35-.11.23-.24.46-.37.68-.12.21-.25.41-.38.62s-.33.41-.45.63c.19-.34.04-.06-.04.05s-.16.2-.25.3a15 15 0 0 1-1.63 1.61c-.2.17-.41.34-.61.5-.11.08-.14.03.08-.06-.04.02-.11.08-.14.11a30 30 0 0 1-1.67 1.13 30 30 0 0 1-2.8 1.52c-.48.23-.97.45-1.46.66-.05.02-.12.04-.17.07.31-.16.18-.07.09-.04-.13.05-.25.1-.38.16-.27.11-.53.21-.8.32-5.13 1.98-10.44 3.52-15.75 4.94-2.75.74-5.5 1.43-8.26 2.12s-5.54 1.47-8.36 1.89c-.08.01-.16.03-.24.03.05 0 .3-.04.02 0-.16.02-.32.04-.48.05-.34.04-.68.06-1.03.08-.71.04-1.41.04-2.12 0l1.4 1.07c-.05-.2-.09-.39-.13-.59 0-.05-.07-.25-.05-.3a12 12 0 0 1-.06-1.1c0-.37.02-.73.05-1.1.02-.18.03-.37.05-.55 0-.08 0-.18.03-.25-.03.22-.03.25-.01.08 0-.07.02-.13.03-.2.23-1.53.6-3.03.85-4.55.29-1.72.43-3.42.17-5.15-.23-1.49-.86-2.93-1.74-4.15-1.87-2.58-4.54-4.34-7.15-6.08-3.15-2.11-6.29-4.23-9.43-6.34-6.25-4.21-12.5-8.43-18.77-12.6s-12.63-8.37-18.96-12.53l-9.49-6.25c-1.55-1.02-3.1-2.01-4.66-3.01q-.48-.3-.93-.63c-.01 0-.27-.21-.11-.08-.08-.06-.16-.13-.24-.2-.15-.13-.3-.27-.43-.42-.07-.07-.14-.15-.2-.23.1.12 0 0-.02-.03-.11-.16-.2-.32-.29-.48-.14-.24.05.18-.04-.08-.02-.06-.04-.11-.06-.17-.03-.08-.05-.17-.07-.26-.01-.05-.05-.41-.04-.17 0-.15-.02-.29-.01-.44 0-.04.05-.31 0-.08.02-.08.03-.17.06-.25.05-.17.16-.37.29-.51.36-.37.39-1.03 0-1.39s-1-.38-1.39 0Zm14.1-67.56c6.83 9.34 16.52 16.31 26.95 21.33 10.43 5.01 21.64 8.18 32.87 10.99.85.21 1.93.35 2.46-.35.29-.38.31-.9.31-1.38l.06-6.59c0-.55 0-1.15-.35-1.58-.27-.34-.7-.5-1.11-.65-11.54-4.19-23.66-7.03-34.46-12.88-2.66-1.44-5.23-3.06-7.92-4.44a52.2 52.2 0 0 0-19.74-5.61"/><path fill="#d4e4ff" d="M57.79 41.4c2.68 3.75 5.8 7.17 9.26 10.21s7.24 5.75 11.21 8.12c4.23 2.53 8.67 4.68 13.22 6.59 4.78 2 9.72 3.6 14.68 5.06 2.5.73 5.01 1.42 7.53 2.08 1.27.33 2.54.66 3.81.98s2.56.64 3.72-.02a2.61 2.61 0 0 0 1.25-1.79c.13-.69.1-1.39.1-2.09l.03-4.11c.01-1.37.24-3.07-.84-4.14-.5-.5-1.17-.74-1.83-.97l-1.77-.63c-4.78-1.66-9.63-3.15-14.44-4.75-2.4-.8-4.78-1.63-7.15-2.53-1.17-.45-2.33-.91-3.49-1.39-.05-.02-.24-.1.01 0l-.21-.09-.42-.18c-.3-.13-.59-.26-.88-.39q-.855-.375-1.71-.78c-2.33-1.1-4.59-2.33-6.82-3.63s-4.52-2.62-6.89-3.72c-4.62-2.15-9.53-3.66-14.58-4.41-.69-.1-1.37-.19-2.06-.27-.62-.07-1.24-.06-1.86-.11-.7-.06-1.37.65-1.34 1.34.03.77.59 1.28 1.34 1.34-.46-.04.66.07.2.03l.45.06c.4.06.81.12 1.21.16.28.03.56.07.84.1s.01 0-.04 0c.07 0 .15.02.22.03.17.02.34.05.51.07 1.22.18 2.42.41 3.62.68 2.4.54 4.76 1.25 7.06 2.12.57.21 1.13.43 1.69.67-.28-.12.11.05.19.08l.42.18c.28.12.55.25.83.38 1.14.53 2.26 1.11 3.36 1.71 2.26 1.24 4.46 2.6 6.74 3.81 4.4 2.35 9.05 4.23 13.75 5.9s9.36 3.09 14.05 4.63c1.18.39 2.35.78 3.52 1.18.58.2 1.15.4 1.72.6.29.1.57.2.86.31.14.05.29.1.43.15.06.02.13.05.19.07.04.02.29.12.1.03-.18-.08 0 0 .05.03.06.03.11.06.16.09.03.02.08.07.11.08-.19-.06-.16-.14-.07-.03l-.09-.13.05.08.05.08-.06-.15s.05.16.05.18c.09.28 0-.19 0-.02.03.63.01 1.26 0 1.89-.01 1.33-.02 2.65-.04 3.98 0 .63 0 1.27-.04 1.9-.01.19.07-.25 0-.08-.02.06-.04.12-.05.18-.03.14.04-.1.05-.11-.11.25.03-.07.06-.05.02.01-.12.1-.12.12 0-.07.25-.17.08-.08-.2.12.09-.05.11-.04 0 0-.18.04-.2.06-.15.08.29-.02.12-.01-.06 0-.11 0-.17.01-.12 0-.23 0-.35-.01-.35-.03.26.05-.08-.01-.13-.02-.26-.05-.39-.08-.6-.14-1.19-.3-1.79-.45-2.47-.63-4.93-1.27-7.38-1.95-4.88-1.36-9.72-2.86-14.46-4.64-1.19-.45-2.37-.9-3.55-1.37-.58-.23-1.16-.47-1.73-.71-.05-.02-.47-.2-.23-.09-.14-.06-.29-.12-.43-.18-.31-.13-.61-.26-.91-.4-2.12-.93-4.21-1.93-6.25-3.02-3.95-2.11-7.73-4.51-11.28-7.24.16.12-.09-.07-.14-.11-.11-.08-.22-.17-.32-.25-.23-.18-.46-.36-.68-.55-.43-.35-.85-.7-1.27-1.05-.85-.72-1.68-1.47-2.49-2.23a60 60 0 0 1-4.6-4.83c-.34-.4-.68-.81-1.01-1.23-.37-.46-.6-.75-.92-1.19-.31-.41-.82-.62-1.29-.34-.41.24-.64.88-.34 1.29Z"/><path fill="#005fea" d="M73.29 54.07c-.09-5.74-1.03-11.43-1.19-17.17-.04-1.42-.03-2.84.05-4.25.05-.87.16-1.72.25-2.58 0 .02-.05.34-.01.11 0-.05.01-.11.02-.16.02-.11.03-.22.05-.32.04-.27.09-.55.14-.82.09-.5.19-1 .31-1.5s.24-.95.39-1.42c.07-.22.14-.44.22-.66.04-.11.08-.23.12-.34.02-.06.05-.12.07-.18.02-.05.11-.27.02-.05s.06-.13.09-.19c.04-.09.08-.18.13-.27.1-.2.21-.4.33-.59.05-.09.11-.17.17-.25l.08-.11c.12-.17-.09.11-.09.12.14-.14.25-.3.4-.44.19-.18.39-.34.58-.51.1-.09.2-.17.31-.25.04-.04.09-.07.13-.1.11-.09-.26.19-.02.02.17-.12.34-.24.52-.35.09-.05.17-.1.26-.15.06-.03.41-.19.16-.08s.08-.03.13-.04c.08-.03.16-.05.24-.07l.25-.06.16-.03c.14-.03-.39.04-.09.02.45-.03.9-.02 1.35.01.29.02.57.06.86.09.17.02-.4-.06-.1-.01.09.01.18.03.26.04.34.06.67.13 1 .21.75.19 1.49.42 2.22.68q.6.21 1.2.45c.21.08.41.16.62.25.09.04.19.08.28.11.05.02.09.04.14.06.2.09.1.05-.04-.02 1.81.8 3.6 1.63 5.36 2.51 3.59 1.8 7.11 3.75 10.68 5.59 1.43.74 2.86 1.46 4.34 2.1 2.23.96 4.54 1.78 6.84 2.55 4.14 1.39 8.37 2.49 12.52 3.87 1.16.39 2.32.79 3.47 1.22 1.27.47 2.51 1.01 3.78 1.48-.03-.01-.29-.13-.07-.03.06.02.11.05.17.07.13.06.25.11.38.17.27.12.53.25.79.39a9 9 0 0 1 1.01.62c.05.03.1.08.14.11l-.14-.11.14.11q.27.225.51.48c.05.05.1.11.14.16.18.21-.04-.02-.03-.04 0 0 .23.34.24.36.06.1.11.21.17.31.11.22-.04-.06-.03-.08 0 .02.06.17.08.21.05.16.1.31.13.47.02.08.06.19.05.27l-.02-.15c0 .07.02.15.02.22.11 1.35-.16 2.73-.34 4.07-.01.1-.03.2-.04.3 0-.05.04-.27 0 0-.02.16-.04.32-.07.48-.05.38-.11.77-.16 1.15-.1.73-.21 1.45-.32 2.17-.44 2.88-.94 5.74-1.5 8.6s-1.18 5.74-1.87 8.59c-.17.69-.33 1.39-.51 2.08-.04.14-.08.28-.12.41-.02.07-.13.2-.02.06.13-.17-.04.04-.05.09-.09.21.05-.1.06-.05 0 .02-.12.12-.12.13 0-.09.23-.14.05-.05-.26.14.24-.04-.03.01-.01 0-.16.05-.19.04l.17-.03h-.15c-.15 0-.31 0-.46-.02-.04 0-.17-.03-.2-.02.03 0 .36.05.04 0-.2-.03-.41-.06-.61-.08l-2.19-.3c-.69-.09-1.38-.19-2.07-.28-.18-.03-.37-.05-.55-.08-.14-.02-.63-.09-.3-.04l-.47-.06c-.36-.05-.73-.1-1.09-.14l1.3 1.3c.23-5.84.28-11.68.37-17.53.03-1.66.04-3.32.04-4.98 0-.51-.35-.92-.82-1.07-5.48-1.79-10.89-3.79-16.24-5.94-.68-.27-1.36-.55-2.04-.83l-1.02-.42c-.16-.07-.32-.13-.48-.2l-.03-.01c-.11-.05-.21-.09-.32-.14-1.35-.57-2.7-1.16-4.04-1.76-2.67-1.19-5.31-2.43-7.93-3.72-2.89-1.43-5.76-2.9-8.59-4.46-.87-.48-1.8.14-1.87 1.08-.41 5.56-.88 11.11-1.35 16.67l-.36 4.31.91-1.19c-.2.09-.41.11-.62.17.1-.03.31-.03.1-.02-.06 0-.12.01-.18.01-.14 0-.27.01-.41.01-.29 0-.58-.01-.86-.04-.16-.01-.32-.03-.48-.05-.05 0-.31-.04-.1-.01s-.09-.01-.14-.02c-.4-.06-.81-.12-1.21-.17l-.27-.03c-.04 0-.08-.01-.12-.01-.13-.02.11.01.11.01-.16 0-.34-.05-.51-.07-.15-.02-.3-.05-.46-.07-.11-.02-.21-.04-.32-.05-.37-.05-.02 0-.01 0-.02.01-.12-.03-.14-.04-.29-.08-.58-.16-.86-.24-.26-.08-.52-.16-.78-.25-.11-.04-.22-.08-.34-.12-.05-.02-.09-.04-.14-.05-.13-.04.25.11.07.03-.46-.2-1.06-.15-1.33.35-.22.42-.15 1.11.35 1.33.03.01.06.03.1.04-.08-.04.48.18.22.09-.21-.07.14.06.21.09.06.02.11.05.17.07.22.09.44.17.67.24.28.1.56.19.85.27.07.02.14.04.2.06.03 0 .3.08.16.04-.2-.06.2.09.19.08.03.01.07.03.11.04.09.04.19.07.29.1.65.23 1.31.46 1.99.58.72.13 1.45.24 2.19.27.64.02 1.36 0 1.96-.26.55-.23.86-.59.91-1.19.46-5.42.93-10.84 1.36-16.27.13-1.57.25-3.14.37-4.71l-1.87 1.08c5.08 2.81 10.29 5.36 15.59 7.71s10.99 4.65 16.59 6.68c3.04 1.1 6.1 2.12 9.17 3.09l-.82-1.07c.02 2.92.01 5.85-.07 8.77s-.24 5.84-.41 8.77c-.09 1.66-.2 3.31-.32 4.97-.04.52.43 1.17.96 1.26 1.49.24 2.99.47 4.49.7.75.12 1.5.23 2.24.35.81.13 1.63.29 2.44.06s1.47-.81 1.82-1.57c.32-.7.47-1.46.66-2.21a219 219 0 0 0 4.17-22.31c.19-1.41.47-2.86.43-4.28-.05-1.5-.54-2.86-1.55-3.97-.8-.87-1.85-1.51-2.91-2.01-1.27-.6-2.58-1.09-3.89-1.59-4.34-1.66-8.79-2.93-13.24-4.27-2.32-.7-4.62-1.45-6.9-2.28l-2.01-.75-.84-.33c-.13-.05-.72-.31-.22-.09-.69-.31-1.39-.62-2.07-.95-3.54-1.71-6.97-3.63-10.46-5.44s-7.21-3.73-11.03-5.04c-1.63-.56-3.3-.95-5.03-1.06-1.06-.06-2.08.08-3.05.52s-1.79 1.16-2.55 1.86c-.68.63-1.18 1.46-1.55 2.3-.44.99-.77 2.01-1.02 3.07-.45 1.96-.7 3.99-.8 6-.29 5.83.71 11.62 1.22 17.4q.195 2.13.27 4.26c.02.58.5 1.14 1.11 1.11s1.12-.49 1.11-1.11Z"/><path fill="#005fea" d="m76.82 32.92.51.21-.24-.1c.91.38 1.79.82 2.64 1.31.43.25.87.46 1.3.71s.85.51 1.26.78c.12.08.23.16.35.23l.36.21c.12.07.24.14.37.2.28.13.57.31.89.29q.3 0 .57-.15a.8.8 0 0 0 .31-.29c.1-.11.17-.24.2-.38q.075-.3 0-.6c-.1-.4-.49-.75-.81-1.01-.18-.14-.35-.28-.53-.41-.11-.08-.23-.15-.35-.23-.46-.28-.92-.55-1.4-.81-.55-.29-1.1-.57-1.68-.8-.5-.2-1-.38-1.5-.55-.57-.19-1.14-.37-1.72-.52-.25-.07-.54-.03-.76.1-.21.12-.4.36-.46.59-.06.25-.05.54.1.76l.16.2c.12.12.27.21.44.26Zm5.98 13.04c1.3.7 2.55 1.49 3.85 2.19 1.22.66 2.45 1.31 3.7 1.94 2.44 1.23 4.89 2.41 7.38 3.53 5.02 2.24 10.1 4.32 15.24 6.27 3.01 1.15 6.04 2.26 9.07 3.37.63.23 1.44-.26 1.59-.9.17-.73-.22-1.34-.9-1.59-5.26-1.9-10.49-3.84-15.7-5.87-1.25-.49-2.49-.99-3.74-1.49l-1.83-.75c-.3-.12-.59-.25-.89-.37-.05-.02-.27-.11-.06-.03-.07-.03-.13-.06-.2-.08-.16-.07-.33-.14-.49-.21-2.51-1.07-5.01-2.15-7.49-3.28-1.44-.65-2.87-1.31-4.3-1.98s-2.98-1.31-4.45-2.07c-.37-.19-.84-.1-1.06.28-.21.35-.09.86.28 1.06Zm51.95 21.5.3.12c.05.02.37.16.15.06.22.09.44.19.65.28.49.21.97.43 1.45.66 1.03.48 2.05.98 3.07 1.48 1.95.95 3.89 1.92 5.87 2.79 2.28 1 4.56 1.99 6.7 3.29.54.33 1.07.68 1.58 1.06.07.05.14.11.21.16.16.12-.17-.14-.02-.01.12.1.25.2.37.3.24.2.48.41.71.63q.675.63 1.26 1.35l.12.15c.13.16-.19-.26 0 0 .08.11.16.21.23.32.18.26.35.52.51.79.17.28.33.57.47.87.08.16.15.33.23.49.04.08.13.18-.02-.05.05.08.07.19.11.27.23.6.41 1.23.53 1.86.03.15.04.32.08.47-.08-.28-.02-.17-.01-.07l.03.29c.03.32.04.64.05.95.01.66-.06 1.33-.14 1.98-.05.46.38.96.81 1.06.46.1 1.02-.06 1.24-.51 1.26-2.51.71-5.46-.45-7.9s-3.08-4.38-5.27-5.92-4.77-2.63-7.29-3.65c-.5-.2-1.01-.4-1.51-.61-.1-.04-.2-.07-.29-.12.32.17-.09-.04-.16-.07-.25-.11-.5-.21-.75-.32-1.08-.47-2.15-.93-3.23-1.4-2.34-1.01-4.67-2.06-7.07-2.93-.48-.17-1.08.19-1.19.68-.13.56.17.99.68 1.19ZM70.39 39.63c-.81-.42-1.64-.84-2.48-1.21-.11-.05-.22-.09-.32-.14s-.22-.09-.33-.14c-.13-.06.04.01.05.02-.28-.12-.57-.23-.85-.33-.4-.14-.81-.27-1.22-.38-1.65-.46-3.43-.75-5.15-.59s-3.48.67-5 1.59c-1.63.99-2.9 2.37-4.12 3.81-2.5 2.96-4.72 6.19-6.4 9.69-.85 1.77-1.58 3.61-2.13 5.5s-.99 4.02-1.39 6.04c-.87 4.33-1.57 8.7-2.12 13.08s-.92 8.59-1.15 12.9c-.11 2.15-.18 4.29-.22 6.44-.03 1.96-.1 3.97.39 5.88.25 1 .68 1.95 1.31 2.76.67.86 1.49 1.54 2.39 2.15 1.5 1.02 3.09 1.91 4.68 2.77 3.29 1.79 6.71 3.34 10.09 4.95 1.72.82 3.45 1.63 5.15 2.48s3.23 1.74 4.87 2.53c.77.37 1.58.73 2.3 1.2.57.37 1.47.14 1.79-.47.34-.65.15-1.39-.47-1.79.06.04.26.21-.03-.01-.07-.06-.14-.11-.21-.16-.08-.06-.16-.12-.24-.17-.19-.13-.38-.26-.57-.4-.35-.26-.71-.51-1.07-.75-.74-.5-1.51-.92-2.3-1.34-1.62-.85-3.26-1.65-4.92-2.43-3.36-1.58-6.77-3.05-10.08-4.72-1.59-.8-3.18-1.63-4.71-2.56-.75-.45-1.48-.93-2.2-1.42-.18-.12-.35-.24-.52-.36-.09-.06-.17-.13-.26-.19-.22-.16.04.02.06.05-.04-.05-.11-.09-.16-.13-.35-.29-.68-.61-.98-.95-.19-.22.15.22-.01-.02-.06-.08-.11-.16-.17-.25-.12-.19-.24-.4-.34-.6-.04-.09-.08-.18-.13-.27 0 0 .12.31.06.15-.02-.05-.04-.09-.05-.14q-.12-.33-.21-.66c-.05-.19-.1-.39-.13-.58-.02-.1-.04-.2-.05-.3l-.03-.2c-.03-.22.01.05.02.12-.01-.44-.08-.88-.1-1.32-.08-2 0-4.02.07-6.02.14-4.21.43-8.42.87-12.62.11-1.05.23-2.1.36-3.14.06-.52.13-1.05.2-1.57 0-.06.02-.12.02-.18.02-.18-.02.11-.02.12 0-.12.03-.24.05-.36l.12-.84c.29-2.07.62-4.13.99-6.19s.78-4.14 1.22-6.21c.39-1.88.82-3.75 1.46-5.57q.225-.645.48-1.29c.05-.12.09-.23.14-.34l.06-.15c.06-.16-.05.11-.05.12.1-.2.18-.42.28-.63q.57-1.26 1.23-2.49c.88-1.63 1.87-3.21 2.95-4.72.27-.38.54-.75.82-1.12.07-.1.14-.21.23-.3 0 0-.16.21-.06.08.03-.04.07-.08.1-.13.14-.18.29-.36.43-.54.58-.71 1.16-1.42 1.79-2.1.3-.33.62-.63.95-.93.07-.06.15-.13.23-.19l.15-.12c.12-.1-.09.07-.09.07.18-.1.34-.25.5-.36.33-.22.68-.43 1.03-.61.17-.09.35-.17.53-.25.24-.11-.24.09 0 0 .1-.04.19-.08.29-.11.36-.13.73-.24 1.1-.33l.56-.12c.09-.02.17-.03.26-.04.23-.04-.29.03.03 0a13 13 0 0 1 2.94-.01c.09 0 .19.02.28.03.05 0 .09.01.14.02.18.02-.25-.04-.06 0 .41.07.82.13 1.23.22.84.18 1.67.43 2.49.69.41.13.81.27 1.21.42.05.02.28.1.13.04-.04-.02.38.16.23.09-.11-.04.09.04.11.05.21.09.42.19.63.28.5.23 1.15.16 1.43-.38.25-.48.14-1.16-.38-1.43Z"/><path fill="#005fea" d="M86.42 129.13c4.98 2.43 9.85 5.08 14.81 7.56s9.88 4.88 14.84 7.28c2.49 1.2 5.01 2.6 7.74 3.16 1.48.3 2.97.37 4.45.03 1.18-.27 2.28-.84 3.24-1.58 1.78-1.38 3.01-3.32 3.9-5.36a32.4 32.4 0 0 0 1.67-4.92c.76-3.02 1.15-6.12 1.44-9.22.3-3.27.48-6.55.71-9.82.11-1.67.24-3.35.39-5.02.07-.82.16-1.65.25-2.47.05-.41.09-.83.15-1.24.02-.19.05-.38.07-.56 0-.05.01-.09.02-.14.03-.24-.03.19-.03.19.01-.12.03-.23.05-.35.44-3.12 1.03-6.24 2.04-9.23.24-.71.51-1.41.79-2.1-.23.55.03-.06.09-.2.08-.18.16-.35.24-.52.16-.34.32-.67.5-.99.33-.63.69-1.25 1.08-1.84.2-.31.41-.61.62-.9.09-.12.48-.63.12-.17l.35-.44c.93-1.13 1.99-2.13 3.13-3.04.17-.14-.15.12-.15.12.01-.02.08-.06.1-.08l.24-.18c.16-.12.32-.23.48-.34.32-.22.63-.46.96-.68.65-.44 1.33-.83 2.03-1.18.1-.05 1.08-.55 1.07-.58s-.26.13-.07.01c.08-.05.23-.1.33-.14s.3-.14.08-.04c.1-.05.21-.09.31-.13.09-.04.67-.24.32-.13.52-.16.91-.74.73-1.29-.17-.52-.73-.91-1.29-.73-.2.06-.42.1-.62.16-.1.03-.19.05-.29.08-.06.02-.12.03-.18.05-.23.09.39-.03-.06.03-.24.03-.48.1-.71.16-.09.02-.18.05-.28.07-.05.01-.09.02-.14.04l-.3.13c.18-.08.23-.1.14-.07-.19.05-.37.15-.55.22l-.51.21c-.04.02-.09.04-.13.06-.09.04-.08.04.03-.01.2-.09.13-.06-.22.09-.36.15-.71.31-1.06.49-1.43.71-2.74 1.69-3.9 2.79-2.18 2.06-3.88 4.63-5.09 7.37-1.29 2.92-2.13 5.99-2.69 9.13-.6 3.32-.91 6.69-1.14 10.06s-.35 6.59-.6 9.88c-.12 1.59-.26 3.18-.44 4.77-.04.39-.09.78-.14 1.17l-.03.27c-.04.31.05-.4 0-.02-.03.2-.05.39-.08.59-.11.73-.23 1.46-.36 2.18-.26 1.4-.57 2.79-1 4.15-.25.78-.53 1.54-.84 2.29-.07.18.12-.28.04-.1-.02.06-.05.11-.07.17-.06.13-.11.25-.17.38l-.36.75c-.24.47-.49.92-.77 1.36-.13.21-.27.41-.41.61-.04.06-.32.42-.15.21.15-.19.02-.03-.02.02-.05.06-.09.12-.14.17-.33.4-.69.77-1.07 1.12-.09.08-.18.15-.27.23-.05.04-.21.17-.01.01.22-.17-.01 0-.05.03-.2.14-.41.28-.62.4s-.45.22-.67.34c.02-.01.37-.15.13-.06-.06.02-.11.04-.17.06-.16.06-.31.11-.47.15-.14.04-.29.08-.43.11-.12.02-.32.1-.44.08.22.04.25-.03.09-.02-.07 0-.15.01-.22.02-.18.01-.37.02-.55.02-.31 0-.62-.02-.93-.05-.06 0-.3-.04-.07 0s0 0-.07-.01l-.5-.09c-.65-.14-1.29-.32-1.91-.55-.31-.11-.61-.23-.92-.35-.1-.04-.53-.22-.16-.06l-.19-.08c-.24-.1-.25-.11-.03-.01-.01-.03-.28-.12-.32-.14-2.55-1.12-5.05-2.36-7.56-3.55s-4.91-2.32-7.38-3.47a746 746 0 0 0-14.99-6.77c-1.27-.55-2.52-1.13-3.77-1.71-.47-.22-1.08-.15-1.35.35-.23.44-.14 1.11.35 1.35Z"/><path fill="#005fea" d="M71.34 112.85c-.09.21.06-.14-.03.06-.08.17-.13.33-.18.5l-.18.57c-.13.38-.27.76-.4 1.14-.27.77-.55 1.53-.84 2.29-.57 1.52-1.15 3.05-1.49 4.64s-.49 3.28-.13 4.87c.27 1.16.88 2.22 1.69 3.08 1.56 1.66 3.85 2.51 5.97 3.19 1.01.33 2.03.62 3.05.95.47.15.93.31 1.38.5l.15.06c.19.07-.36-.16-.11-.05.15.06.29.13.44.2.47.21.95.42 1.43.61 1.65.66 3.38.93 5.13.56 1.52-.32 2.98-1.18 4.02-2.33.29-.32.55-.67.79-1.03.37-.56.13-1.44-.46-1.75-.65-.35-1.34-.13-1.75.46-.02.02-.15.17-.14.2l.1-.13s-.07.08-.1.13c-.1.12-.21.24-.32.36s-.23.23-.35.33l-.19.16c-.11.09-.08.07.07-.06-.04.03-.09.06-.13.1-.26.19-.54.36-.83.5-.07.04-.14.07-.22.11-.12.06-.29.05.02 0-.18.03-.36.14-.53.19-.31.1-.62.18-.94.23-.14.02-.31-.02.04 0-.08 0-.16.02-.24.02-.19.01-.38.02-.56.02q-.24 0-.48-.03h-.08c-.15-.03-.13-.02.06 0-.08.01-.21-.04-.29-.05-.42-.08-.84-.2-1.24-.34-.19-.07-.38-.14-.56-.21-.09-.04-.19-.07-.28-.11.32.15.02 0-.04-.02-.34-.15-.67-.31-1.01-.45-.51-.22-1.03-.43-1.55-.62-.95-.34-1.91-.64-2.87-.96-.5-.17-.99-.34-1.48-.52-.23-.09-.47-.18-.7-.27-.06-.02-.11-.05-.17-.07.44.18.21.09.11.05l-.39-.18c-.45-.21-.9-.44-1.32-.7-.2-.12-.39-.25-.58-.38-.05-.03-.09-.07-.14-.1-.2-.14.3.24.11.09-.1-.08-.2-.17-.3-.25a7 7 0 0 1-.48-.46c-.08-.08-.15-.16-.22-.25a.6.6 0 0 1-.1-.13c-.15-.18.25.34.06.07-.13-.18-.25-.37-.35-.56l-.15-.3c-.05-.1-.11-.32.06.14-.03-.07-.06-.14-.08-.21-.08-.22-.14-.45-.19-.68-.03-.12-.04-.24-.06-.36.1.56 0-.01 0-.16-.02-.37-.02-.74 0-1.12 0-.18.02-.37.04-.55 0-.09.02-.18.03-.28 0-.06.01-.12.02-.18-.03.22-.03.26-.01.1.27-1.74.78-3.4 1.34-5.06.28-.83.57-1.66.82-2.5s.51-1.82.54-2.74c.02-.55-.43-1.02-.96-1.09-.59-.08-1 .28-1.22.79Z"/><path fill="#005fea" d="m73.23 112.4.24-.24c.12-.11-.15.1-.02.01.05-.03.1-.07.16-.1.05-.03.09-.05.14-.08.02-.01.06-.02.07-.04 0 0-.2.07-.1.04.11-.04.22-.08.34-.11.05-.01.11-.03.16-.04.03 0 .06 0 .08-.01.1-.02-.12.02-.12.02.08.03.27 0 .37 0 .12 0 .23.02.35.03s-.15-.02-.14-.02c.03 0 .06 0 .09.01.07.01.13.02.2.04.48.1.97.23 1.43.41.11.04.22.09.33.13l-.12-.05c.03.01.07.03.1.04.08.03.15.07.23.1q.405.18.81.39c1.09.55 2.16 1.14 3.22 1.73s2.1 1.19 3.2 1.68c.7.31 1.4.61 2.13.85.6.2 1.23.32 1.81.55l-.32-.13c.2.09.4.17.6.25l-.31-.13c.13.06.27.12.39.2.26.16.52.24.83.24.34 0 .76-.19.91-.52.1-.22.14-.3.17-.52.04-.31-.03-.61-.2-.87-.21-.33-.43-.53-.73-.76-.36-.28-.84-.41-1.28-.54-.82-.23-1.62-.49-2.4-.82l.32.14c-1.9-.81-3.7-1.83-5.54-2.76-.99-.5-2.01-.94-3.05-1.3-.89-.31-1.82-.5-2.76-.42-1.07.09-2.19.41-2.89 1.28-.16.2-.27.39-.27.66 0 .23.1.5.27.66.35.32.97.39 1.31 0Zm14.75 7.94c-.15.13-.28.25-.39.41-.08.13-.17.26-.24.38-.15.24-.28.48-.41.74-.28.57-.54 1.16-.76 1.75-.19.52-.36 1.05-.53 1.58s-.31 1.08-.47 1.62l-.27.91c-.09.3-.23.63-.3.95-.07.3-.05.67.12.94l.19.25c.11.12.24.2.39.25.24.1.54.14.79.06.28-.09.61-.28.73-.56.09-.22.18-.43.24-.66.04-.15.09-.29.13-.44.08-.27.15-.55.22-.82.14-.55.29-1.1.41-1.65.24-1.09.46-2.18.76-3.25.08-.3.18-.6.26-.9.05-.16.09-.31.14-.47.07-.2.07-.42.09-.63.01-.1-.04-.24-.09-.33a.7.7 0 0 0-.31-.27c-.25-.11-.52-.04-.72.14Z"/><path fill="#005fea" d="M159.2 87.95c-.15 1.98-.24 3.95-.29 5.93s-.02 4 .05 6c.13 4.03.4 8.05.76 12.06s.81 8.14 1.33 12.19 1.1 8.26 1.67 12.38c.28 2 .55 4 .82 6 .03.19-.02-.14-.02-.14 0 .06.02.12.02.17.02.12.03.23.05.35.04.27.07.54.11.81.06.48.13.96.19 1.44.13 1 .26 1.99.38 2.99.24 1.96.56 3.93.62 5.9.01.48.01.96-.02 1.43 0 .11-.02.23-.03.34 0 .05 0 .17-.03.23 0 0 .05-.33.02-.14-.05.24-.08.49-.14.73-.05.22-.11.43-.18.64-.03.1-.07.21-.11.31-.02.04-.03.09-.05.13-.08.2.03-.07.05-.13-.18.34-.33.69-.53 1.02-.1.17-.21.34-.33.5-.05.08-.11.15-.16.22-.15.21.22-.27 0 0-.25.31-.52.61-.8.9s-.56.54-.86.8c-.08.07-.17.14-.26.21-.04.03-.08.06-.11.09 0 0 .27-.21.14-.1-.17.12-.33.25-.5.37-1.39.99-2.89 1.8-4.41 2.59-1.79.93-3.61 1.82-5.45 2.66-.91.42-1.82.83-2.74 1.23-.47.2-.94.41-1.41.61-.05.02-.11.05-.16.07.09-.04.46-.2 0 0l-.48.21c-.25.11-.5.22-.76.32-.11.05-.22.09-.33.14-.18.08.15-.06.15-.06-.05.02-.11.05-.16.07-.24.1-.47.2-.71.29-.47.2-.94.39-1.42.58q-1.395.57-2.79 1.11c-1.88.74-3.78 1.45-5.68 2.15s-3.81 1.38-5.71 2.06-3.8 1.43-5.75 1.95q-1.32.345-2.67.54l.48-.06c-.97.13-1.94.18-2.91.18-.48 0-.97-.01-1.45-.05-.22-.02-.45-.03-.67-.06-.11-.01-.22-.02-.33-.04-.05 0-.09-.01-.14-.02-.3-.04.34.05.12.02-1.89-.29-3.71-.82-5.5-1.48-.94-.35-1.87-.72-2.8-1.1-.12-.05-.23-.1-.35-.14l-.15-.06c.37.15.16.07.08.04-.25-.11-.5-.21-.76-.32-.24-.1-.48-.2-.72-.31-.11-.05-.23-.1-.34-.15-.43-.18-.1-.03-.02 0-.14-.03-.28-.13-.41-.18-2.14-.95-4.28-1.88-6.41-2.85-4.31-1.96-8.58-4.01-12.83-6.11s-8.44-4.23-12.64-6.38-8.42-4.33-12.61-6.53-7.97-4.51-11.86-6.92c-1.95-1.21-3.89-2.42-5.84-3.63-.97-.6-1.95-1.2-2.94-1.79-.81-.48-1.62-.96-2.39-1.51-.09-.07-.42-.35-.04-.03-.07-.06-.14-.11-.21-.17q-.285-.225-.54-.48c-.15-.14-.3-.29-.43-.45-.07-.08-.13-.16-.2-.24-.11-.13.12.17.12.15-.03-.06-.09-.12-.13-.18-.11-.17-.22-.34-.31-.52-.05-.09-.08-.19-.13-.27 0-.01.13.35.08.19-.02-.07-.05-.13-.07-.2-.06-.19-.11-.39-.15-.59-.03-.15.05-.15.02.16 0-.05 0-.12-.01-.17v-.45c0-.07.01-.15.02-.22 0-.18-.02.15-.02.15.05-.11.05-.27.07-.39.06-.28.14-.55.24-.82.05-.14.1-.29.16-.43.02-.05.04-.11.06-.16l-.05.12c.08-.1.13-.3.19-.42.06-.13.12-.26.18-.38.39-.85.75-1.71 1.09-2.58 1.37-3.52 2.42-7.15 3.48-10.77s2.11-7.22 3.47-10.73c.15-.38.3-.75.45-1.13.07-.16-.09.22-.08.19.02-.05.04-.1.07-.15l.12-.27c.08-.19.17-.38.25-.56.19-.41.29-.8.16-1.25-.1-.38-.39-.78-.74-.97-.71-.38-1.84-.24-2.21.58-1.47 3.21-2.55 6.57-3.57 9.94s-2.07 7.09-3.23 10.59a74 74 0 0 1-1.75 4.77c-.11.26.14-.33.03-.08l-.12.27c-.08.18-.15.35-.23.53-.26.57-.52 1.15-.74 1.74-.45 1.19-.61 2.41-.41 3.67.32 1.98 1.84 3.48 3.37 4.63.7.52 1.44.96 2.18 1.4.95.56 1.9 1.14 2.85 1.71 3.71 2.27 7.35 4.65 11.07 6.9s7.69 4.34 11.61 6.38 8.01 4.17 12.03 6.22 8.04 4.04 12.1 5.99 8.13 3.83 12.24 5.64c1.96.86 3.93 1.72 5.89 2.58 1.84.81 3.69 1.61 5.6 2.24s3.66 1.04 5.56 1.28c1.99.25 3.96.12 5.92-.24 2.14-.39 4.16-1.17 6.19-1.9s4.11-1.47 6.16-2.22c4.2-1.54 8.37-3.16 12.49-4.91s7.92-3.62 11.72-5.73c1.65-.92 3.25-1.91 4.71-3.11s2.67-2.54 3.43-4.2c.51-1.11.8-2.23.93-3.45.12-1.05.08-2.11-.02-3.15-.19-2.14-.49-4.28-.76-6.41-.57-4.41-1.18-8.82-1.78-13.23-.15-1.08-.3-2.16-.44-3.23-.04-.27-.07-.55-.11-.82-.02-.12-.03-.24-.05-.35-.03-.23.04.31.01.08l-.03-.24c-.07-.55-.15-1.1-.22-1.65l-.42-3.25c-.02-.14-.04-.28-.05-.41 0-.06-.01-.12-.02-.18l-.06-.43.03.19c-.03-.28-.07-.55-.11-.83l-.21-1.66c-.55-4.37-1.04-8.74-1.41-13.12s-.59-8.65-.76-12.99c-.08-2.07-.13-4.15-.13-6.22 0-.6-.52-1.17-1.14-1.14-.66.03-1.09.5-1.14 1.14ZM67.93 52.4l.31.37-.14-.18c.19.36.53.68.82.97.32.32.69.58 1.06.84.67.47 1.46.78 2.21 1.09.69.28 1.38.52 2.09.72.4.12.8.22 1.21.3s.82.15 1.23.21c.98.16 1.97.29 2.96.39.22.02.52-.12.67-.28s.23-.33.26-.54a.95.95 0 0 0-.68-1.04c-1.05-.29-2.1-.61-3.13-.98-.51-.18-1.01-.39-1.53-.56-.49-.16-.97-.34-1.46-.51-.52-.18-1.03-.37-1.54-.58l.32.14c-.27-.11-.53-.23-.79-.36-.35-.17-.71-.29-1.06-.44l.3.13c-.44-.19-.88-.37-1.33-.55l.26.11c-.29-.12-.58-.29-.88-.36l.21.09c-.14-.07-.28-.15-.41-.23-.35-.2-.8-.11-1.04.21-.1.14-.18.31-.17.49.01.23.09.39.24.57Zm48.85 20.61c.25 1.09 1.27 1.6 2.23 1.96.45.17.93.28 1.39.4s.95.26 1.43.37c.98.24 1.97.41 2.96.58 1.08.19 2.17.35 3.25.49.55.07 1.11.14 1.66.18s1.16.11 1.74.1 1.07-.44 1.15-1.02c.07-.54-.27-1.17-.84-1.29-.65-.13-1.32-.18-1.98-.27l.33.04-2.06-.27.33.04c-1.32-.18-2.63-.39-3.94-.64s-2.61-.52-3.91-.8c-.6-.13-1.24-.22-1.82-.46l.26.11c-.18-.08-.35-.16-.53-.23l.25.11c-.11-.05-.22-.1-.32-.17-.05-.03-.09-.06-.14-.09-.05-.04-.23-.17-.01 0-.29-.24-.7-.35-1.04-.13s-.48.58-.39.97Z"/><path fill="#005fea" d="M135.87 132.6c-2.75 5.93-5.46 11.87-8.35 17.73-1.43 2.91-2.83 5.84-4.23 8.76s-2.72 5.66-3.97 8.54c-.71 1.64-1.37 3.31-1.92 5.01-.26.8-.52 1.62-.69 2.44-.19.91-.29 1.85-.35 2.77-.04.65.53 1.21 1.14 1.29s1.28-.3 1.44-.94c.75-2.92 1.61-5.78 2.76-8.57.13-.32.26-.64.4-.97 0 0 .15-.36.06-.14s.06-.13.06-.14c.08-.18.15-.36.23-.53l.93-2.13c.15-.33.3-.67.45-1l.25-.57c.03-.08.07-.15.1-.23.15-.37.2-.46.12-.29-.04.1-.03.08.02-.06l.96-2.25c1.29-3.03 2.6-6.06 3.86-9.1s2.43-5.85 3.73-8.78c1.48-3.34 2.95-6.67 4.43-10.01.18-.41.12-.89-.3-1.13-.36-.21-.94-.11-1.13.3M76.88 31.8c-.54 2.9-.9 5.84-1.07 8.78s-.17 5.91.02 8.86c.11 1.66.27 3.31.49 4.95.01.1.08.19.19.19.09 0 .2-.09.19-.19a71.6 71.6 0 0 1-.18-17.57c.19-1.65.43-3.3.74-4.93.04-.24-.32-.34-.36-.1Zm-3.5-6.63c2.62-1 5.4-.15 7.81 1.01 1.27.61 2.48 1.33 3.69 2.04s2.51 1.45 3.78 2.14c2.55 1.39 5.14 2.72 7.76 3.96s5.26 2.41 7.94 3.51 5.39 2.12 8.12 3.08 5.5 1.83 8.28 2.64c1.38.4 2.76.77 4.14 1.14 1.22.33 2.51.69 3.5 1.53s1.46 1.99 1.72 3.19c.3 1.39.31 2.84.24 4.25-.16 3.13-.83 6.21-1.41 9.28s-1.16 6.22-1.74 9.33l-.42 2.27c-.04.24.32.34.36.1.59-3.15 1.17-6.3 1.76-9.46.29-1.57.59-3.15.88-4.72s.57-3.1.76-4.66.27-3.12.17-4.68c-.08-1.25-.3-2.53-.88-3.65-.28-.55-.66-1.06-1.13-1.47s-1.02-.74-1.6-.99c-1.24-.54-2.59-.81-3.89-1.17q-4.245-1.155-8.43-2.55c-4.185-1.395-5.54-1.92-8.28-3s-5.42-2.22-8.08-3.44-5.28-2.52-7.86-3.89c-1.3-.69-2.58-1.39-3.86-2.12s-2.48-1.46-3.74-2.16c-2.35-1.3-5.04-2.57-7.8-2.33-.65.06-1.29.2-1.9.44-.22.09-.13.45.1.36Zm-2.8 99.73c.5.01.96.21 1.4.44s.88.47 1.33.68c.93.43 1.89.79 2.86 1.1 2.03.66 4.1 1.2 6.16 1.78.6.17 1.2.34 1.79.51.52.15 1.09.36 1.61.1.22-.11.03-.43-.19-.32-.44.21-1.01-.05-1.44-.17-.52-.15-1.04-.29-1.55-.44l-3.17-.9c-1.95-.55-3.93-1.08-5.78-1.93-.51-.23-.99-.5-1.49-.76s-.99-.45-1.54-.47c-.24 0-.24.37 0 .38Zm78.61-39.13c.99 2.35.45 4.98.14 7.41-.17 1.33-.26 2.65-.2 3.99s.22 2.74.4 4.11c.35 2.75.63 5.51.81 8.28s.29 5.55.39 8.32.19 5.54.28 8.32.16 5.57.22 8.36.09 5.57.08 8.36-.05 5.57-.14 8.35-.23 5.56-.44 8.34c-.18 2.48-.37 5.02-1.2 7.39-.2.57-.44 1.13-.72 1.67-.11.21.21.4.32.19 1.17-2.22 1.57-4.72 1.81-7.19.26-2.73.4-5.47.52-8.21s.18-5.61.21-8.41 0-5.59-.03-8.39-.11-5.59-.19-8.39-.18-5.59-.27-8.38-.19-5.59-.34-8.39-.37-5.58-.69-8.36-.8-5.5-.6-8.28c.18-2.5.88-5.02.48-7.53-.09-.6-.26-1.17-.5-1.73-.04-.09-.18-.11-.26-.07-.1.06-.11.16-.07.26Z"/><path fill="#005fea" d="M130.45 147.03c2.27-.72 4.53-1.46 6.79-2.21s4.51-1.51 6.76-2.29 4.51-1.58 6.76-2.39 4.4-1.59 6.58-2.43c1.9-.72 3.8-1.53 5.41-2.81.2-.16.39-.32.58-.5s-.09-.43-.27-.27c-1.51 1.39-3.39 2.26-5.27 3-2.13.83-4.28 1.61-6.43 2.39s-4.46 1.6-6.7 2.38-4.48 1.54-6.73 2.29-4.48 1.48-6.73 2.2c-.28.09-.57.18-.85.27-.23.07-.13.43.1.36Zm9.57-34c2.65-.84 5.31-1.68 7.96-2.52s5.29-1.67 7.94-2.51l2.23-.71c.34-.11.69-.21 1.03-.33.28-.11.55-.24.75-.47.16-.18-.11-.45-.27-.27-.18.21-.42.32-.68.41-.29.1-.59.19-.88.28l-1.96.62c-1.31.41-2.62.83-3.92 1.24-2.63.83-5.25 1.66-7.88 2.49-1.48.47-2.95.93-4.43 1.4-.23.07-.13.43.1.36ZM42.85 73.48c3.08 1.38 6.15 2.76 9.23 4.15s6.15 2.76 9.23 4.15 6.15 2.76 9.23 4.15 6.15 2.76 9.23 4.15 6.06 2.72 9.08 4.08 5.94 2.66 8.91 3.97 5.97 2.62 8.97 3.91 6 2.54 9.02 3.76 6.05 2.42 9.11 3.57 6.12 2.25 9.2 3.31c.74.25 1.49.5 2.23.75.23.08.33-.29.1-.36-3.09-1.03-6.17-2.11-9.23-3.23s-6.08-2.29-9.1-3.5-6.03-2.45-9.03-3.72-6-2.57-8.99-3.88-5.95-2.63-8.92-3.96-6.01-2.7-9.01-4.05-6.15-2.76-9.23-4.15-6.13-2.76-9.2-4.13-6.13-2.76-9.2-4.13-6.15-2.76-9.23-4.15c-.74-.33-1.48-.67-2.22-1-.22-.1-.41.22-.19.32Z"/><path fill="#005fea" d="M102.13 55.28c-1.81.16-3.43 1.02-4.81 2.17s-2.62 2.68-3.69 4.2c-1.12 1.6-2.1 3.3-2.96 5.05s-1.6 3.56-2.24 5.41-1.2 3.75-1.67 5.66-.88 3.84-1.25 5.78c-.39 2.1-.73 4.21-1.06 6.32s-.67 4.33-1.02 6.5-.74 4.29-1.2 6.42-.99 4.23-1.63 6.31c-.16.51-.32 1.01-.49 1.52-.08.23.28.33.36.1.69-2.04 1.27-4.12 1.76-6.21s.91-4.24 1.28-6.37.7-4.27 1.03-6.4.66-4.27 1.03-6.4c.34-1.94.71-3.87 1.15-5.79s.94-3.81 1.53-5.68 1.25-3.68 2.04-5.45 1.68-3.48 2.7-5.11 2.11-3.14 3.42-4.5c1.24-1.27 2.71-2.4 4.44-2.9.42-.12.85-.2 1.28-.24.24-.02.24-.4 0-.38Zm-24.96 78.05c-1.5 2.95-2.93 5.93-4.3 8.95s-2.66 6.08-3.87 9.16c-.69 1.73-1.35 3.48-1.99 5.23-.08.23.28.32.36.1a208 208 0 0 1 10.12-23.25c.11-.21-.21-.4-.32-.19m-34.98-22.08c3.32 1.59 6.63 3.22 9.92 4.86s6.57 3.32 9.84 5.02c1.83.95 3.66 1.92 5.49 2.89.21.11.4-.21.19-.32-3.25-1.73-6.52-3.43-9.79-5.11s-6.57-3.33-9.88-4.95c-1.85-.91-3.71-1.81-5.58-2.71-.22-.1-.41.22-.19.32m45.65 23.15c2.37 2.02 5.1 3.54 7.87 4.92 2.95 1.47 5.97 2.78 8.97 4.13 1.52.68 3.04 1.37 4.56 2.05 1.43.64 2.86 1.28 4.33 1.85 2.78 1.08 5.71 1.93 8.71 1.95 2.67.02 5.41-.58 7.64-2.08.27-.18.54-.38.8-.59.19-.15-.08-.42-.27-.27-2.07 1.68-4.73 2.45-7.37 2.55-2.93.12-5.81-.59-8.55-1.6-1.44-.53-2.85-1.14-4.26-1.76l-4.47-2.01c-2.96-1.33-5.94-2.63-8.87-4.04-2.76-1.33-5.52-2.77-7.95-4.65-.3-.23-.59-.47-.88-.72-.18-.16-.45.11-.27.27Z"/></svg>